<svg version="1.2" xmlns="http://www.w3.org/2000/svg" viewBox="0 0 128 128" width="128" height="128">
	<title>flask-original-svg</title>
	<style>
		.s0 { fill: #ffffff } 
	</style>
	<path id="Layer" fill-rule="evenodd" class="s0" d="m44.4 100.6c-4.2-3.3-8.7-6.5-11.8-11-6.5-7.9-11.5-17.1-14.9-26.7-2.1-6.3-2.8-13-5.4-19-2.8-4.4 0.5-9.2 5.2-10.6 2.2-0.4 5.9-2.4 1.4-1-4.1 3-4.4-2.7-0.3-3 2.9-0.4 3.9-2.7 2.9-4.8-3-2 7.4-4.2 2.2-7.2-5.5-5.9 7.6-7 4.4-0.3-0.8 5.1 9.2-1 6.9 5 2.3 2.9 8.8 0.6 8.6 4.7 3.4 0.2 4.6 3.1 7.8 3.3 3.3 1.5 9.4 2.7 10.5 6.4-3.3 2.6-11-5.4-11.3 1.9 1 10.7 0.7 21.7 4.6 31.9 1.9 6.1 6.4 11 10.4 15.8 3.9 4.7 9.1 8 14.5 10.8 4.7 2.2 9.7 3.6 14.9 4.6 2-1.6 5.7-7.5 8.9-5 0.2 2.8-6.4 5.8-0.3 5.5 3.6-1.1 6.1 2.8 9.1-0.7 2.7 3.2 11.3-2.1 9.3 4.5-2.6 1.7-6.4 0.7-9 3-4.4-2.1-7.8 2-12.6 1.4-5.3 1-10.7 1.4-16.1 1.4-8.9-0.7-17.9-1-26.3-4.1-4.8-1.4-9.4-4.1-13.6-6.8zm7.5 3.3c4.6 2 9.2 4.1 14.2 4.7 8.1 1.1 16.4 2.9 24.5 1.3-3.7-1.7-7.4 0.6-11.1-1.2-4.4 0.9-9-0.2-13.5-0.8-5-2.3-10.5-3.8-15.2-6.7-5.9-2.2 3 2.7 4.6 3.1 3.7 2.1-4-1-5.1-1.9-3.1-1.8-3.5-1.4-0.3 0.4 0.6 0.3 1.2 0.7 1.9 1.1zm-8.8-6.3c4.5 1.7 0-3.1-2.1-2.8-0.9-1.6-3.4-2.6-1.6-3.5-3.3 1.2-3.5-4.3-5-3.5-3.4-1.1-1.3-5-5.4-7.3-0.4-2.5-4.1-4.7-5.3-8.5-0.5-1.9-4.2-7.4-1.9-2.3 1.9 5 5.2 9.2 8.1 13.5 2.1 4 4.7 8.2 8.7 10.8 1.3 1.3 2.6 3.2 4.5 3.6zm23.3 2.8c3.5-2.1 2.4 5 6 0.6 3.6-2.6-3.1 3.3 1.3 0.5 3.3-2.2 8 1 11 2 2.2-0.1 4.3 1.9 6.5 0.7 4.3-1.1-8.3-1.7-5-3.7-3.9 1.1-6.8-1.4-8.7-3.9-4.4-1-9.5-3.2-11.7-7.1-0.9-1.5 1.3 0.2-0.8-2.2-2.6-2.4-3.9-5-5.7-7.9-2.1-1.1-2.4-4.5-2.6-0.1 0.1-2.7-2.5-4.6-3.2-3.8 0-2.7 2.8-1.3 0.9-3.3-0.5-2.7-1.8-5.6-2.2-8.7-0.7-1.5-0.1-4.7-2.2-1.3-0.8 3.6-0.3-4.4 0.9-1.7 1.5-2.6-0.4-2.4-0.6-2.1 1-2.2 0.6-5.4-0.3-4.2 0.5-2.4 0.9-8.8-0.8-7.6 1-2.5 1.9-11.5-2.5-8.1-1.8 0.1-4.8 0.7-6.3 1.4 4.6 2.5-0.5 0.9-2.3 0.5-0.3 2.3-2.1 1.3-4.4 1.4 3.7 0.4-1.8 3.7-3.9 2.4-2.7 1.3 2.4 4.6 0.1 5.6 0.2 1.5-4.2-0.5-3.9 3-2.6-1.2-0.3 4.1 1 2.3 4.5 1.3 3.2 4.1 3.3 6.7-0.8 1.5-3.7-3.6-0.7-3.4-2.3-3.8-2.6-1.4-4.5 0.4-0.5 0.1 5 2.5 1.5 3.7 3.1 0.5 3.1 3.1 3.8 4.8 1.8 1.9 1.4-2.1 3.6 0.2-1.4-2-7.3-5.7-2.6-4.5 0-2.1-0.8-3.7 0.6-3.7 1.5-2.6-1.5 6.5 1.8 3.1 0.9-0.4 1.1-2.6 2.7 0.3 2.3 2.3 0.8 3.9-2.5 1.8 0.6 2 4.5 2.7 3.7 5.9 0.8 2.7 1.9 1.7 2.8 1.6 0.7 2.6 1.1 0.7 1.2-0.6 3.3 0.7 2.5 2.7 3.6 4.1 2.3 1-3.3-7.1 0.6-2.5 3.9 3.5 2 5.1-1.2 4.8 1.7 0.6 2.6 3.1 5.1 3 2.7 1.3 4.6 6.2-0.1 4.2-1.6-1.5-7.3-3.3-2.6-0.5 4.3 2 7.7 3.2 11.8 5.7 3 2.1 4.3 4.5 5.4 5-2.5 1.2-7.5-1-3.8-1.6-2.3-0.5-4.9-1.6-2.7 1.3 1.9 1.5 6.7 1.4 7.6 1.6-0.7 1.6-2 1.7 0 1.8-2.2 1.2 0.7 1.4 0.9 2.1zm-16-42q0 0 0 0.1 0-0.1 0-0.1zm-5.6 19.4q-0.4-0.1-0.9-0.1 0.4 0.1 0.9 0.1zm18.2 28.2c1.8 1.1 10.7 2.5 5.1 0.5-0.9 0.2-10.3-2.7-5.1-0.5zm-20.3-16.5c2.1 1.6 8.7 0.2 3.2-1-2.4-1.3-7.9-2.2-4.2 0.8zm10.5 5.5c5.2 1.5-4.5-3.3-1.3-0.5l0.7 0.3zm-12.2-11.6c1.6 1.2 5.9 3.3 2.2 0.5 1.3-1.5-2.3-2.2-1.1-3.2-3.1-1.9-2.5-1.7-0.3-1.6-3.7-1.7 0.5-1.6 0.3-2.4-1.4-0.3-7-2.5-3.7 0.2-3.4-1.7-0.8 0.6-1.8 0.4-3.5-1 3 2.6-0.6 1.7 2 1.6 5.3 4 0.9 1.7-0.6 0.8 3.2 2.1 4.1 2.7zm12.2 8.8c3.9 0.5-4.5-2.6-0.8-0.3zm8.7-4.8c-1.4-1.4-1.7-4.1-0.3-1.8 0.8 0.3 2.5 4.4 0.3 1.8zm-29.4-15.8c2.4 0.5 9.6 5.9 5.4 0.3-2.2-0.6-0.9-5.9-3.1-5 1.5 2.5 1.2 3.6-1.9 2-3.9-1.9-2.2 0.9-1.4 1.7-1.1 0.3 1.3 0.9 1 1zm20.6 1.4c-1.6-3.7 1.2-2 0.4 0.6zm-15-10.1c-0.8-1.2-2-4.7-1.6-5.7 0.4 1.7 3.7 7.5 1.7 2.3-2.3-4.3 2.7 1.4 3.2 2.5 0.2 1.1-1.4-0.3-0.3 2.2-2-2.8-1.2 1.6-3-1.3zm-7.6-6.3c-1.8-1.7-3-3.3 0.1-1.1 1.1 0-2.7-3.6 0.2-1.2 3.1 0.6 1.5 5.1-0.3 2.3zm1-2.7c-5-4.4 6.3 2.4 0.8 0.9zm14.4 8.3c-2.2-1.3-0.6-9.1 0.2-3.8 2.1-0.6-0.1 2.8 1.4 2.8-0.2 2.2-0.9 3-1.6 1zm-13.4-9.8c-3.2-4.5 9.4 4.5 2.1 1.1-0.8-0.2-1.7-0.2-2.1-1.1zm0.5-1.7c1.9-0.4 8 3.4 2.4 1.1-0.6-0.7-1.9-0.4-2.4-1.1zm16.5 8.2c0.2-3.8 1.1-2.3 0 0.6zm-15.1-9.6c0.8-1.1-2-5.2 0.4-1.4 1.1 0.8 3.2 1.4 1.4 1.7 2.8 2.5-0.7 0.7-1.8-0.3zm12.6-2c-1-1.8 1.2-7.8 1.5-4.1-1.1 2.9-0.3 4.5 0.4 0.7 1.3-3.1-0.3 6-1.9 3.4zm-31.8-3c-0.4-2.5-0.3-6.8 3.8-5.3-5.5 1.1 3.8 6.8 2.6 2.3 2.4 0.1 4.6-1.4 3.4 0.9 4.5-0.5 7.7-4.5 12.1-4 3.5-0.4 7.2-0.8 10.9-2.1 3-0.3 6-3.5 4.3-5.5-4.1-0.3-8.5 0.2-13.1 1.1-5 1.1-9.7 3.1-14.8 3.9-5 0.7 1 1.9-0.4 2.1-2.6 0.9 3.1 1.6-0.4 2.5-2.1-0.4-4.3-1.1-3.4-3.4-4.8 0.6-9 2.6-5.2 7.5zm35.8 45.8c2.9 0.7 2.9-0.5 0.3-0.8-1.4-1.3-5.8-2.7-1.9-0.2 0.3 0.7 1.1 0.6 1.6 1zm25.6 14.2c1.5-1.5 0 2.3 2.5-0.4 0-1.9-0.1-3.1-2.8-0.7-0.8 0.4-1.1 2.2 0.3 1.1zm-24.7-15.9c1.7 1.5 7.7 1.1 2 0.2-0.8-1.2-5.3-0.9-2-0.2zm-27.6-18.5c-2.4-3.5-1.5-5-3.9-7.9-0.4-2.2-4-7.1-1.8-1.9 2 3.1 2.6 7.8 5.7 9.8zm58.8 35.3c2.6-1.6-0.5-1.3-0.4 0.2zm4.1 1.1c3.2-2.4-2-0.4-0.7 0.5zm-65.7-43.6c0.4-1.7-3.9-9.7-2.1-4 0.7 1.2 0.7 3.5 2.1 4zm74.9 41.4c2.4-0.5 7.8 1.2 8.6-0.7-2.9 0-9.9-2-10.3 0.5l0.7 0.1zm-73.8-51.5c2.4-1-4.4-2-0.5-0.2zm4.1-14.2c1.1-4.2 6 3.4 1.8 0.5-0.5-0.4-1.3-0.6-1.8-0.5zm2.3-2c0.1-1.9 4.7 1 0.7 0.7zm3.5-1.6c1.7-2.1 9.7-1.3 3.9-0.2-1.6-1.2-2.8 0.7-3.9 0.2zm13.4-1.6c1.1-2.9 4.2-1.2 0.5-0.6 0.1 0.3-0.1 1.4-0.5 0.6zm69.5 70.9c2.6 0 7.9-0.8 2.2-0.8-0.8 0.2-5.1 0.1-2.2 0.8zm-88.8-56.4c2-0.2 3.2-2.3-0.5-2.2-5.6-0.6 5.1 1.9-0.7 1.2-0.8 0.5 1.1 1.1 1.2 1zm-3-16.5c3.4-1.2 8-2.5 10.1-0.1-1-1.9 0-3.2 1.5-0.4 2.1 2.8 3.2-0.5 2.5-2 1.6 1.8 3.1 2.4 0.7-0.4 2.8-3.4-5.7 0.4-7.6 0.4-0.9 0.4-9.6 2.2-7.2 2.5zm10.1-0.1q0.2 0.3 0.5 0.7-0.2-0.4-0.5-0.7zm4-2.4q-0.3-0.3-0.5-0.5 0.3 0.2 0.5 0.5zm-11.9-1.7c2.1-1.6 7.4 1 4-1.6-0.3-0.3-7.3 1.9-4 1.6zm7.8 0.3c2.5 0.1-1.1-3.3 1.9-1.8-0.5-1.6-3.5-1.9-4.9-2.5-0.9 1.4 1.6 4.3 3 4.3zm-3.3-6.3c4-0.5-1-1.7-0.8 0zm-5.9-4.6c-2.8-3.7 5.3 0.6 2.5-3.3-2.5-1.9-4.8 2.2-2.5 3.3zm36.2 19.5c1.3-2.3-5.3-3.1-0.8-0.8 0.4 0.1 0.3 0.9 0.8 0.8z"/>
</svg>